<?xml version="1.0" encoding="UTF-8"?> <!-- Generator: Adobe Illustrator 26.0.3, SVG Export Plug-In . SVG Version: 6.00 Build 0) --> <svg xmlns="http://www.w3.org/2000/svg" xmlns:xlink="http://www.w3.org/1999/xlink" id="Layer_1" x="0px" y="0px" viewBox="0 0 1105.4 211.2" style="enable-background:new 0 0 1105.4 211.2;" xml:space="preserve"> <style type="text/css"> .st0{fill:#FFFFFF;} </style> <g> <g> <path class="st0" d="M213.3,118c-1.4-6.8-3.5-13.4-6.2-19.6H97.6V78.8H38.7v98.1h168.3c2.7-6.2,4.8-12.8,6.2-19.6 c1.3-6.3,2-12.9,2-19.6C215.2,130.9,214.5,124.4,213.3,118z M151.1,157.2H97.6V118h53.6c3.3,5.8,5.2,12.5,5.2,19.6 C156.4,144.8,154.5,151.5,151.1,157.2z"></path> <polygon class="st0" points="215.2,39.6 215.2,59.2 38.7,59.2 30.6,39.6 "></polygon> <path class="st0" d="M513.5,59.2l-8.2-19.6h8.2v0l168.3,0c2.7,6.2,4.8,12.8,6.2,19.6H513.5z"></path> <rect x="333" y="39.6" class="st0" width="58.8" height="19.6"></rect> <rect x="421.2" y="39.6" class="st0" width="58.8" height="19.6"></rect> <polygon class="st0" points="244.7,59.2 236.6,39.6 303.5,39.6 303.5,59.2 "></polygon> <path class="st0" d="M688,98.4c-0.7,3.3-1.5,6.6-2.5,9.8c1,3.2,1.8,6.5,2.5,9.8c1.3,6.3,2,12.9,2,19.6c0,6.7-0.7,13.3-2,19.6 c-1.4,6.8-3.5,13.4-6.2,19.6H513.5v0v-19.6l112.4,0c3.3-5.8,5.2-12.5,5.2-19.6s-1.9-13.8-5.2-19.6l-112.4,0V98.4h112.4 c3.3-5.8,5.2-12.5,5.2-19.6c0,0,0,0,0,0H690c0,0,0,0,0,0C690,85.5,689.3,92.1,688,98.4z"></path> <polygon class="st0" points="421.2,78.8 480,78.8 480,176.9 244.7,176.9 244.7,78.8 303.5,78.8 303.5,157.2 333,157.2 333,78.8 391.8,78.8 391.8,157.2 421.2,157.2 "></polygon> </g> <g> <g> <path class="st0" d="M783.7,96.7v22.4H755V96.7h4.1v18.9h8.3V96.7h4.1v18.9h8.2V96.7H783.7z"></path> <path class="st0" d="M807.9,100.2h-7.4v18.9h-4.1v-18.9H789v-3.5h18.9V100.2z"></path> <path class="st0" d="M826.8,113.9h-11.2l-2.2,5.2h-4.3l10.1-22.4h4.1l10.1,22.4H829L826.8,113.9z M825.4,110.7l-4.2-9.8l-4.2,9.8 H825.4z"></path> <path class="st0" d="M859,119.1l0-14.8l-7.4,12.3h-1.9l-7.4-12.1v14.7h-3.9V96.7h3.4l8.9,14.8l8.8-14.8h3.4l0.1,22.4H859z"></path> <path class="st0" d="M890.7,96.7v22.4h-4.1v-18.9H875v18.9h-4.1V96.7H890.7z"></path> <path class="st0" d="M902.8,117.9c-1.8-1-3.3-2.4-4.3-4.1c-1-1.8-1.6-3.7-1.6-5.9c0-2.2,0.5-4.1,1.6-5.9c1-1.8,2.5-3.1,4.3-4.1 c1.8-1,3.9-1.5,6.2-1.5c2.3,0,4.3,0.5,6.2,1.5c1.8,1,3.3,2.4,4.3,4.1s1.6,3.7,1.6,5.9c0,2.2-0.5,4.2-1.6,5.9s-2.5,3.1-4.3,4.1 c-1.8,1-3.9,1.5-6.2,1.5C906.7,119.4,904.6,118.9,902.8,117.9z M913,114.8c1.2-0.7,2.1-1.6,2.8-2.8c0.7-1.2,1-2.6,1-4 c0-1.5-0.3-2.8-1-4c-0.7-1.2-1.6-2.1-2.8-2.8s-2.5-1-4-1c-1.5,0-2.8,0.3-4,1c-1.2,0.7-2.1,1.6-2.8,2.8c-0.7,1.2-1,2.6-1,4 c0,1.5,0.3,2.8,1,4c0.7,1.2,1.6,2.1,2.8,2.8c1.2,0.7,2.5,1,4,1C910.5,115.8,911.8,115.4,913,114.8z"></path> <path class="st0" d="M945.2,109.4c0.7,0.9,1.1,2.1,1.1,3.5c0,2-0.7,3.5-2.2,4.6c-1.5,1.1-3.6,1.6-6.3,1.6h-10.6V96.7h10 c2.5,0,4.5,0.5,5.9,1.5c1.4,1,2.1,2.4,2.1,4.3c0,1.2-0.3,2.2-0.8,3c-0.6,0.9-1.4,1.5-2.4,2C943.4,107.8,944.5,108.5,945.2,109.4z M931.4,106.3h5.6c1.3,0,2.4-0.3,3.1-0.8c0.7-0.5,1.1-1.3,1.1-2.4s-0.4-1.8-1.1-2.4c-0.7-0.5-1.7-0.8-3.1-0.8h-5.6V106.3z M942.2,112.6c0-2.2-1.5-3.3-4.4-3.3h-6.4v6.6h6.4C940.7,115.9,942.2,114.8,942.2,112.6z"></path> <path class="st0" d="M956.9,117.9c-1.8-1-3.3-2.4-4.3-4.1c-1-1.8-1.6-3.7-1.6-5.9c0-2.2,0.5-4.1,1.6-5.9c1-1.8,2.5-3.1,4.3-4.1 c1.8-1,3.9-1.5,6.2-1.5c2.3,0,4.3,0.5,6.2,1.5c1.8,1,3.3,2.4,4.3,4.1c1,1.7,1.6,3.7,1.6,5.9c0,2.2-0.5,4.2-1.6,5.9 c-1,1.7-2.5,3.1-4.3,4.1c-1.8,1-3.9,1.5-6.2,1.5C960.8,119.4,958.7,118.9,956.9,117.9z M967.1,114.8c1.2-0.7,2.1-1.6,2.8-2.8 c0.7-1.2,1-2.6,1-4c0-1.5-0.3-2.8-1-4c-0.7-1.2-1.6-2.1-2.8-2.8c-1.2-0.7-2.5-1-4-1c-1.5,0-2.8,0.3-4,1c-1.2,0.7-2.1,1.6-2.8,2.8 c-0.7,1.2-1,2.6-1,4c0,1.5,0.3,2.8,1,4c0.7,1.2,1.6,2.1,2.8,2.8c1.2,0.7,2.5,1,4,1C964.6,115.8,965.9,115.4,967.1,114.8z"></path> <path class="st0" d="M998.3,96.7v22.4h-4.1v-8.4c-2.1,0.8-4.1,1.2-6,1.2c-2.9,0-5.1-0.7-6.6-2.1c-1.5-1.4-2.3-3.4-2.3-5.9v-7.1 h4.1v6.7c0,1.6,0.5,2.8,1.4,3.6c0.9,0.8,2.2,1.2,3.9,1.2c1.9,0,3.8-0.4,5.5-1.2V96.7H998.3z"></path> <path class="st0" d="M1026.1,96.7v22.4h-4.2v-9.6h-11.6v9.6h-4.2V96.7h4.2v9.2h11.6v-9.2H1026.1z"></path> <path class="st0" d="M1050.5,106.1c1.4,1.2,2.2,3,2.2,5.4c0,2.5-0.8,4.4-2.4,5.7c-1.6,1.3-3.8,2-6.7,2h-9.6V96.7h4.1v7.6h6.2 C1047,104.3,1049.1,104.9,1050.5,106.1z M1047.2,114.8c0.9-0.7,1.3-1.8,1.3-3.3c0-2.7-1.7-4.1-5.1-4.1h-5.3v8.4h5.3 C1045.1,115.9,1046.3,115.5,1047.2,114.8z M1055.9,96.7h4.1v22.4h-4.1V96.7z"></path> <path class="st0" d="M1067.9,96.7h4.1v15.9l12-15.9h3.9v22.4h-4.1v-15.9l-12,15.9h-3.9V96.7z M1073.6,94c-1-0.8-1.5-1.9-1.5-3.5 h2.9c0,0.8,0.3,1.4,0.8,1.8c0.5,0.4,1.2,0.6,2.1,0.6c0.9,0,1.6-0.2,2.2-0.6c0.5-0.4,0.8-1,0.8-1.8h2.9c0,1.5-0.5,2.6-1.5,3.4 c-1,0.8-2.4,1.2-4.3,1.2C1076,95.2,1074.5,94.8,1073.6,94z"></path> <path class="st0" d="M769.9,164.3c0.8,0.9,1.1,2.1,1.1,3.3c0,1.3-0.4,2.5-1.3,3.5c-0.9,1-2,1.8-3.5,2.3c-1.5,0.5-3.1,0.8-4.8,0.8 c-1.5,0-3-0.2-4.5-0.6c-1.5-0.4-2.9-1-4.2-1.9l1.3-3c1,0.7,2.1,1.2,3.3,1.5c1.2,0.4,2.4,0.5,3.6,0.5c1.7,0,3.1-0.3,4.2-1 c1.1-0.7,1.7-1.6,1.7-2.7c0-1-0.4-1.7-1.2-2.2c-0.8-0.5-1.9-0.8-3.4-0.8H757v-3.3h4.9c1.2,0,2.2-0.3,2.9-0.8 c0.7-0.5,1.1-1.2,1.1-2.1c0-1-0.5-1.9-1.4-2.4c-0.9-0.6-2.2-0.9-3.6-0.9c-1,0-2,0.1-3.1,0.4c-1.1,0.3-2.1,0.7-3,1.3l-1.3-3.4 c1.2-0.6,2.4-1.1,3.7-1.4c1.3-0.3,2.6-0.5,3.9-0.5c1.7,0,3.2,0.3,4.6,0.8c1.4,0.5,2.5,1.2,3.3,2.2c0.8,1,1.2,2.1,1.2,3.3 c0,1.1-0.3,2.1-0.9,2.9c-0.6,0.8-1.4,1.5-2.5,1.9C768.1,162.7,769.1,163.4,769.9,164.3z"></path> <path class="st0" d="M792.2,168.8H781l-2.2,5.2h-4.3l10.1-22.4h4.1l10.1,22.4h-4.4L792.2,168.8z M790.8,165.5l-4.2-9.8l-4.2,9.8 H790.8z"></path> <path class="st0" d="M821.8,164.3c0.7,0.9,1.1,2.1,1.1,3.5c0,2-0.7,3.5-2.2,4.6c-1.5,1.1-3.6,1.6-6.3,1.6h-10.6v-22.4h10 c2.5,0,4.5,0.5,5.9,1.5c1.4,1,2.1,2.4,2.1,4.3c0,1.2-0.3,2.2-0.8,3c-0.6,0.9-1.4,1.5-2.4,2C819.9,162.7,821,163.4,821.8,164.3z M807.9,161.1h5.6c1.3,0,2.4-0.3,3.1-0.8c0.7-0.5,1.1-1.3,1.1-2.4c0-1-0.4-1.8-1.1-2.4c-0.7-0.5-1.7-0.8-3.1-0.8h-5.6V161.1z M818.7,167.4c0-2.2-1.5-3.3-4.4-3.3h-6.4v6.6h6.4C817.2,170.8,818.7,169.7,818.7,167.4z"></path> <path class="st0" d="M833.4,172.8c-1.8-1-3.3-2.4-4.3-4.1c-1-1.8-1.6-3.7-1.6-5.9c0-2.2,0.5-4.1,1.6-5.9c1-1.8,2.5-3.1,4.3-4.1 c1.8-1,3.9-1.5,6.2-1.5c2.3,0,4.3,0.5,6.2,1.5c1.8,1,3.3,2.4,4.3,4.1c1,1.7,1.6,3.7,1.6,5.9c0,2.2-0.5,4.2-1.6,5.9 c-1,1.7-2.5,3.1-4.3,4.1c-1.8,1-3.9,1.5-6.2,1.5C837.3,174.3,835.3,173.8,833.4,172.8z M843.6,169.6c1.2-0.7,2.1-1.6,2.8-2.8 c0.7-1.2,1-2.6,1-4c0-1.5-0.3-2.8-1-4c-0.7-1.2-1.6-2.1-2.8-2.8c-1.2-0.7-2.5-1-4-1c-1.5,0-2.8,0.3-4,1c-1.2,0.7-2.1,1.6-2.8,2.8 c-0.7,1.2-1,2.6-1,4c0,1.5,0.3,2.8,1,4c0.7,1.2,1.6,2.1,2.8,2.8c1.2,0.7,2.5,1,4,1C841.1,170.6,842.4,170.3,843.6,169.6z"></path> <path class="st0" d="M879.5,170.4v8.3h-3.8V174h-17.2v4.8h-3.9l0-8.3h1c1.4-0.1,2.4-1.1,3-3.1c0.6-2,0.9-4.9,1-8.7l0.3-7.1h16.4 v18.9H879.5z M862.5,166.3c-0.4,1.9-0.9,3.3-1.7,4.1h11.4v-15.4h-8.8l-0.2,4C863.1,162,862.9,164.4,862.5,166.3z"></path> </g> <g> <path class="st0" d="M755,41.8h17.5v3.4h-13.4v5.5h6.6c2.7,0,4.7,0.6,6.1,1.7c1.4,1.1,2.1,2.7,2.1,4.9c0,2.2-0.8,3.9-2.3,5.1 c-1.5,1.2-3.7,1.8-6.6,1.8H755V41.8z M764.8,61.1c1.6,0,2.8-0.3,3.7-0.9c0.8-0.6,1.2-1.5,1.2-2.7c0-2.3-1.6-3.5-4.9-3.5h-5.8v7.1 H764.8z"></path> <path class="st0" d="M780.1,41.8h4.1v15.9l12-15.9h3.9v22.4h-4.1V48.4l-12,15.9h-3.9V41.8z"></path> <path class="st0" d="M836.9,41.8v22.4h-28.8V41.8h4.1v18.9h8.3V41.8h4.1v18.9h8.2V41.8H836.9z"></path> <path class="st0" d="M853.1,54.8h-4.2v9.5h-4.1V41.8h4.1v9.4h4.3l6.4-9.4h4.4l-7.7,10.9l7.9,11.6h-4.7L853.1,54.8z"></path> <path class="st0" d="M885.6,60.8v3.5h-16.8V41.8h16.4v3.5h-12.2v5.8h10.8v3.4h-10.8v6.2H885.6z"></path> <path class="st0" d="M900.1,54.8H896v9.5h-4.1V41.8h4.1v9.4h4.3l6.4-9.4h4.4l-7.7,10.9l7.9,11.6h-4.7L900.1,54.8z"></path> <path class="st0" d="M920,63.1c-1.8-1-3.3-2.4-4.3-4.1c-1-1.8-1.6-3.7-1.6-5.9c0-2.2,0.5-4.2,1.6-5.9c1-1.8,2.5-3.1,4.3-4.1 c1.8-1,3.9-1.5,6.1-1.5c1.8,0,3.5,0.3,5,1c1.5,0.6,2.8,1.6,3.8,2.8l-2.7,2.5c-1.6-1.8-3.6-2.6-6-2.6c-1.5,0-2.9,0.3-4.1,1 c-1.2,0.7-2.2,1.6-2.9,2.8c-0.7,1.2-1,2.6-1,4.1c0,1.5,0.3,2.9,1,4.1c0.7,1.2,1.6,2.1,2.9,2.8c1.2,0.7,2.6,1,4.1,1 c2.4,0,4.4-0.9,6-2.7l2.7,2.6c-1,1.2-2.3,2.1-3.9,2.8c-1.5,0.6-3.2,1-5,1C923.8,64.6,921.8,64.1,920,63.1z"></path> <path class="st0" d="M948.8,54.8h-4.2v9.5h-4.1V41.8h4.1v9.4h4.3l6.4-9.4h4.4l-7.7,10.9l7.9,11.6h-4.7L948.8,54.8z"></path> <path class="st0" d="M964.5,41.8h4.1v15.9l12-15.9h3.9v22.4h-4.1V48.4l-12,15.9h-3.9V41.8z"></path> <path class="st0" d="M992.5,41.8h4.1v15.9l12-15.9h3.9v22.4h-4.1V48.4l-12,15.9h-3.9V41.8z M998.1,39.2c-1-0.8-1.5-1.9-1.5-3.5 h2.9c0,0.8,0.3,1.4,0.8,1.8c0.5,0.4,1.2,0.6,2.1,0.6c0.9,0,1.6-0.2,2.2-0.6c0.5-0.4,0.8-1,0.8-1.8h2.9c0,1.5-0.5,2.6-1.5,3.4 c-1,0.8-2.4,1.2-4.3,1.2C1000.5,40.3,999.1,39.9,998.1,39.2z"></path> </g> </g> </g> </svg> 